<?xml version="1.0" encoding="UTF-8"?>
<svg id="Layer_2" data-name="Layer 2" xmlns="http://www.w3.org/2000/svg" xmlns:xlink="http://www.w3.org/1999/xlink" viewBox="0 0 286.78 75.78">
  <defs>
    <style>
      .cls-1 {
        fill: url(#linear-gradient-5);
      }

      .cls-2 {
        fill: url(#linear-gradient-6);
      }

      .cls-3 {
        fill: url(#linear-gradient-4);
      }

      .cls-4 {
        fill: url(#linear-gradient-3);
      }

      .cls-5 {
        fill: url(#linear-gradient-2);
      }

      .cls-6 {
        fill: url(#linear-gradient);
      }
    </style>
    <linearGradient id="linear-gradient" x1="37.24" y1="35.52" x2="137.29" y2="35.52" gradientUnits="userSpaceOnUse">
      <stop offset="0" stop-color="#d6af84"/>
      <stop offset="1" stop-color="#07389b"/>
    </linearGradient>
    <linearGradient id="linear-gradient-2" x1="18.77" y1="41.36" x2="118.82" y2="41.36" xlink:href="#linear-gradient"/>
    <linearGradient id="linear-gradient-3" x1="18.77" y1="33.47" x2="118.82" y2="33.47" xlink:href="#linear-gradient"/>
    <linearGradient id="linear-gradient-4" x1="18.77" y1="41.36" x2="118.82" y2="41.36" xlink:href="#linear-gradient"/>
    <linearGradient id="linear-gradient-5" x1="18.77" y1="40.89" x2="118.82" y2="40.89" xlink:href="#linear-gradient"/>
    <linearGradient id="linear-gradient-6" x1="47.28" y1="37.89" x2="110.58" y2="37.89" gradientUnits="userSpaceOnUse">
      <stop offset="0" stop-color="#d6ad81"/>
      <stop offset="1" stop-color="#07389b"/>
    </linearGradient>
  </defs>
  <g id="Layer_1-2" data-name="Layer 1">
    <g>
      <path class="cls-6" d="M96.02,51.96c-5.7,0-8.55-2.56-8.62-6.36h-9.13c.22,9.13,7.16,14.76,17.76,14.76s17.76-5.77,17.76-15.05c0-11.11-8.62-12.64-15.86-13.96-5.19-.95-9.65-1.75-9.65-5.92,0-3.51,2.63-6.36,7.89-6.36s7.89,2.63,7.96,6.29h8.84c-.37-8.77-7.02-14.69-16.88-14.69s-16.88,6.21-16.88,15.05c0,11.11,8.55,12.64,15.78,13.96,5.19.95,9.65,1.75,9.65,5.92,0,3.8-2.85,6.36-8.62,6.36Z"/>
      <path class="cls-5" d="M135.62,60.36c5.7,0,10.59-2.7,12.79-8.04v7.09h7.96v-17.76c0-11.62-7.89-19.29-19.22-19.29s-19.51,7.89-19.51,19.36c0,12.35,9.21,18.63,17.98,18.63ZM137.08,30.48c6.36,0,10.6,4.53,10.6,10.89s-4.24,10.89-10.6,10.89-10.67-4.53-10.67-10.89,4.31-10.89,10.67-10.89Z"/>
      <rect class="cls-4" x="164.04" y="7.53" width="8.7" height="51.88"/>
      <path class="cls-3" d="M196.92,60.36c5.7,0,10.6-2.7,12.79-8.04v7.09h7.96v-17.76c0-11.62-7.89-19.29-19.22-19.29s-19.51,7.89-19.51,19.36c0,12.35,9.21,18.63,17.98,18.63ZM198.38,30.48c6.36,0,10.6,4.53,10.6,10.89s-4.24,10.89-10.6,10.89-10.67-4.53-10.67-10.89,4.31-10.89,10.67-10.89Z"/>
      <path class="cls-1" d="M232.79,38.44c0-5.83,2.91-7.95,7.12-7.96h4.78v-8.11h-4.78c-9.41.01-15.82,5.2-15.82,16.07v20.97h8.7v-20.97Z"/>
      <path class="cls-2" d="M278.09,22.37v19.29c0,6.72-3.8,10.16-9.13,10.16s-9.13-3.29-9.13-10.16v-19.29h-8.7v19.29c0,12.86,7.89,18.27,16.22,18.27,4.75,0,8.55-2.12,10.74-6.07v4.53c0,7.01-3.36,9.86-9.28,9.86l-231.02.04h0c-18.09,0-29.33-11.98-29.33-29,0-18.29,13.06-31.79,32.11-31.79,17.54,0,25.03,11.35,25.03,23.02,0,8.24-3.73,14.35-7.83,16.79v-8.6c0-11.77-8.1-19.49-19.66-19.29-10.66.19-19.07,8.71-19.07,19.37,0,12.34,9.21,18.63,17.98,18.63,5.7,0,10.6-2.7,12.79-8.04v2.79c0,2.4,2.03,4.36,4.43,4.17,0,0,0,0,.01,0,1.05-.1,2.07-.32,3.08-.61l.45-.11v-.02c8.92-2.81,15.96-12.87,15.96-25.1C73.74,15.63,63.25,0,40.57,0S0,16.92,0,39.28s15.42,36.5,37.56,36.5c.07,0,.15-.01.22-.02h0s231.03.01,231.03.01c10.01,0,17.98-5.04,17.98-17.61V22.37h-8.7ZM38.48,49.3c-6.36,0-10.67-4.53-10.67-10.89s4.31-10.89,10.67-10.89,10.6,4.53,10.6,10.89-4.24,10.89-10.6,10.89Z"/>
    </g>
  </g>
</svg>